# Blender v2.79 (sub 0) OBJ File: ''
# www.blender.org
mtllib AxisControl.mtl
o Cylinder
v 0.000000 -0.081174 0.059451
v 0.000000 12.890357 0.059451
v -0.011598 -0.081174 0.058309
v -0.011598 12.890357 0.058309
v -0.022751 -0.081174 0.054926
v -0.022751 12.890357 0.054926
v -0.033029 -0.081174 0.049432
v -0.033029 12.890357 0.049432
v -0.042038 -0.081174 0.042038
v -0.042038 12.890357 0.042038
v -0.049432 -0.081174 0.033029
v -0.049432 12.890357 0.033029
v -0.054926 -0.081174 0.022751
v -0.054926 12.890357 0.022751
v -0.058309 -0.081174 0.011598
v -0.058309 12.890357 0.011598
v -0.059451 -0.081174 0.000000
v -0.059451 12.890357 0.000000
v -0.058309 -0.081174 -0.011598
v -0.058309 12.890357 -0.011598
v -0.054926 -0.081174 -0.022751
v -0.054926 12.890357 -0.022751
v -0.049432 -0.081174 -0.033029
v -0.049432 12.890357 -0.033029
v -0.042038 -0.081174 -0.042038
v -0.042038 12.890357 -0.042038
v -0.033029 -0.081174 -0.049432
v -0.033029 12.890357 -0.049432
v -0.022751 -0.081174 -0.054926
v -0.022751 12.890357 -0.054926
v -0.011598 -0.081174 -0.058309
v -0.011598 12.890357 -0.058309
v 0.000000 -0.081174 -0.059451
v 0.000000 12.890357 -0.059451
v 0.011598 -0.081174 -0.058309
v 0.011598 12.890357 -0.058309
v 0.022751 -0.081174 -0.054926
v 0.022751 12.890357 -0.054926
v 0.033029 -0.081174 -0.049432
v 0.033029 12.890357 -0.049432
v 0.042039 -0.081174 -0.042038
v 0.042039 12.890357 -0.042038
v 0.049432 -0.081174 -0.033029
v 0.049432 12.890357 -0.033029
v 0.054926 -0.081174 -0.022751
v 0.054926 12.890357 -0.022751
v 0.058309 -0.081174 -0.011598
v 0.058309 12.890357 -0.011598
v 0.059451 -0.081174 0.000000
v 0.059451 12.890357 0.000000
v 0.058309 -0.081174 0.011598
v 0.058309 12.890357 0.011598
v 0.054926 -0.081174 0.022751
v 0.054926 12.890357 0.022751
v 0.049432 -0.081174 0.033029
v 0.049432 12.890357 0.033029
v 0.042038 -0.081174 0.042039
v 0.042038 12.890357 0.042039
v 0.033029 -0.081174 0.049432
v 0.033029 12.890357 0.049432
v 0.022751 -0.081174 0.054926
v 0.022751 12.890357 0.054926
v 0.011598 -0.081174 0.058309
v 0.011598 12.890357 0.058309
vn -0.0980 0.0000 0.9952
vn -0.2903 0.0000 0.9569
vn -0.4714 0.0000 0.8819
vn -0.6344 0.0000 0.7730
vn -0.7730 0.0000 0.6344
vn -0.8819 0.0000 0.4714
vn -0.9569 0.0000 0.2903
vn -0.9952 0.0000 0.0980
vn -0.9952 0.0000 -0.0980
vn -0.9569 0.0000 -0.2903
vn -0.8819 0.0000 -0.4714
vn -0.7730 0.0000 -0.6344
vn -0.6344 0.0000 -0.7730
vn -0.4714 0.0000 -0.8819
vn -0.2903 0.0000 -0.9569
vn -0.0980 0.0000 -0.9952
vn 0.0980 0.0000 -0.9952
vn 0.2903 0.0000 -0.9569
vn 0.4714 0.0000 -0.8819
vn 0.6344 0.0000 -0.7730
vn 0.7730 0.0000 -0.6344
vn 0.8819 0.0000 -0.4714
vn 0.9569 0.0000 -0.2903
vn 0.9952 0.0000 -0.0980
vn 0.9952 0.0000 0.0980
vn 0.9569 0.0000 0.2903
vn 0.8819 0.0000 0.4714
vn 0.7730 0.0000 0.6344
vn 0.6344 0.0000 0.7730
vn 0.4714 0.0000 0.8819
vn 0.0000 1.0000 -0.0000
vn 0.2903 0.0000 0.9569
vn 0.0980 0.0000 0.9952
vn 0.0000 -1.0000 0.0000
usemtl None
s off
f 1//1 2//1 4//1 3//1
f 3//2 4//2 6//2 5//2
f 5//3 6//3 8//3 7//3
f 7//4 8//4 10//4 9//4
f 9//5 10//5 12//5 11//5
f 11//6 12//6 14//6 13//6
f 13//7 14//7 16//7 15//7
f 15//8 16//8 18//8 17//8
f 17//9 18//9 20//9 19//9
f 19//10 20//10 22//10 21//10
f 21//11 22//11 24//11 23//11
f 23//12 24//12 26//12 25//12
f 25//13 26//13 28//13 27//13
f 27//14 28//14 30//14 29//14
f 29//15 30//15 32//15 31//15
f 31//16 32//16 34//16 33//16
f 33//17 34//17 36//17 35//17
f 35//18 36//18 38//18 37//18
f 37//19 38//19 40//19 39//19
f 39//20 40//20 42//20 41//20
f 41//21 42//21 44//21 43//21
f 43//22 44//22 46//22 45//22
f 45//23 46//23 48//23 47//23
f 47//24 48//24 50//24 49//24
f 49//25 50//25 52//25 51//25
f 51//26 52//26 54//26 53//26
f 53//27 54//27 56//27 55//27
f 55//28 56//28 58//28 57//28
f 57//29 58//29 60//29 59//29
f 59//30 60//30 62//30 61//30
f 4//31 2//31 64//31 62//31 60//31 58//31 56//31 54//31 52//31 50//31 48//31 46//31 44//31 42//31 40//31 38//31 36//31 34//31 32//31 30//31 28//31 26//31 24//31 22//31 20//31 18//31 16//31 14//31 12//31 10//31 8//31 6//31
f 61//32 62//32 64//32 63//32
f 63//33 64//33 2//33 1//33
f 1//34 3//34 5//34 7//34 9//34 11//34 13//34 15//34 17//34 19//34 21//34 23//34 25//34 27//34 29//34 31//34 33//34 35//34 37//34 39//34 41//34 43//34 45//34 47//34 49//34 51//34 53//34 55//34 57//34 59//34 61//34 63//34
o Cone
v 0.000000 12.405570 -1.000000
v 0.000000 14.405570 0.000000
v 0.195090 12.405570 -0.980785
v 0.382683 12.405570 -0.923880
v 0.555570 12.405570 -0.831470
v 0.707107 12.405570 -0.707107
v 0.831470 12.405570 -0.555570
v 0.923880 12.405570 -0.382683
v 0.980785 12.405570 -0.195090
v 1.000000 12.405570 -0.000000
v 0.980785 12.405570 0.195090
v 0.923880 12.405570 0.382683
v 0.831470 12.405570 0.555570
v 0.707107 12.405570 0.707107
v 0.555570 12.405570 0.831470
v 0.382683 12.405570 0.923880
v 0.195090 12.405570 0.980785
v -0.000000 12.405570 1.000000
v -0.195091 12.405570 0.980785
v -0.382684 12.405570 0.923879
v -0.555571 12.405570 0.831469
v -0.707107 12.405570 0.707106
v -0.831470 12.405570 0.555570
v -0.923880 12.405570 0.382683
v -0.980785 12.405570 0.195089
v -1.000000 12.405570 -0.000001
v -0.980785 12.405570 -0.195091
v -0.923879 12.405570 -0.382684
v -0.831469 12.405570 -0.555571
v -0.707106 12.405570 -0.707108
v -0.555569 12.405570 -0.831470
v -0.382682 12.405570 -0.923880
v -0.195089 12.405570 -0.980786
vn 0.0878 0.4455 -0.8910
vn 0.2599 0.4455 -0.8567
vn 0.4220 0.4455 -0.7896
vn 0.5680 0.4455 -0.6921
vn 0.6921 0.4455 -0.5680
vn 0.7896 0.4455 -0.4220
vn 0.8567 0.4455 -0.2599
vn 0.8910 0.4455 -0.0878
vn 0.8910 0.4455 0.0878
vn 0.8567 0.4455 0.2599
vn 0.7896 0.4455 0.4220
vn 0.6921 0.4455 0.5680
vn 0.5680 0.4455 0.6921
vn 0.4220 0.4455 0.7896
vn 0.2599 0.4455 0.8567
vn 0.0878 0.4455 0.8910
vn -0.0878 0.4455 0.8910
vn -0.2599 0.4455 0.8567
vn -0.4220 0.4455 0.7896
vn -0.5680 0.4455 0.6921
vn -0.6921 0.4455 0.5680
vn -0.7896 0.4455 0.4220
vn -0.8567 0.4455 0.2599
vn -0.8910 0.4455 0.0878
vn -0.8910 0.4455 -0.0878
vn -0.8567 0.4455 -0.2599
vn -0.7896 0.4455 -0.4220
vn -0.6921 0.4455 -0.5680
vn -0.5680 0.4455 -0.6921
vn -0.4220 0.4455 -0.7896
vn -0.2599 0.4455 -0.8567
vn -0.0878 0.4455 -0.8910
vn 0.0000 -1.0000 0.0000
usemtl None
s off
f 65//35 66//35 67//35
f 67//36 66//36 68//36
f 68//37 66//37 69//37
f 69//38 66//38 70//38
f 70//39 66//39 71//39
f 71//40 66//40 72//40
f 72//41 66//41 73//41
f 73//42 66//42 74//42
f 74//43 66//43 75//43
f 75//44 66//44 76//44
f 76//45 66//45 77//45
f 77//46 66//46 78//46
f 78//47 66//47 79//47
f 79//48 66//48 80//48
f 80//49 66//49 81//49
f 81//50 66//50 82//50
f 82//51 66//51 83//51
f 83//52 66//52 84//52
f 84//53 66//53 85//53
f 85//54 66//54 86//54
f 86//55 66//55 87//55
f 87//56 66//56 88//56
f 88//57 66//57 89//57
f 89//58 66//58 90//58
f 90//59 66//59 91//59
f 91//60 66//60 92//60
f 92//61 66//61 93//61
f 93//62 66//62 94//62
f 94//63 66//63 95//63
f 95//64 66//64 96//64
f 96//65 66//65 97//65
f 97//66 66//66 65//66
f 65//67 67//67 68//67 69//67 70//67 71//67 72//67 73//67 74//67 75//67 76//67 77//67 78//67 79//67 80//67 81//67 82//67 83//67 84//67 85//67 86//67 87//67 88//67 89//67 90//67 91//67 92//67 93//67 94//67 95//67 96//67 97//67
